<?xml version="1.0" standalone="no"?>
<!DOCTYPE svg PUBLIC "-//W3C//DTD SVG 20010904//EN"
 "http://www.w3.org/TR/2001/REC-SVG-20010904/DTD/svg10.dtd">
<svg version="1.0" xmlns="http://www.w3.org/2000/svg"
 width="840.000000pt" height="801.000000pt" viewBox="0 0 840.000000 801.000000"
 preserveAspectRatio="xMidYMid meet">

<g transform="translate(0.000000,801.000000) scale(0.100000,-0.100000)"
fill="#000000" stroke="none">
<path d="M2765 7585 c-391 -92 -828 -313 -1195 -603 -132 -105 -408 -384 -514
-522 -428 -552 -689 -1211 -801 -2025 -49 -357 -48 -325 -52 -2248 l-4 -1807
1596 0 1595 0 0 1645 0 1645 -794 0 -794 0 -6 33 c-15 79 -36 328 -45 524 -15
335 8 719 60 998 90 482 251 827 503 1081 245 246 511 363 899 396 l137 12 -2
446 -3 445 -240 2 c-221 2 -248 0 -340 -22z"/>
<path d="M7650 7603 c-14 -2 -75 -17 -136 -33 -353 -93 -789 -314 -1094 -554
-770 -608 -1228 -1501 -1369 -2671 -39 -323 -41 -442 -41 -2227 l0 -1738 1595
0 1595 0 0 1645 0 1645 -797 2 -798 3 -7 50 c-44 299 -57 891 -25 1187 70 650
251 1106 558 1409 230 228 513 350 887 381 l142 12 -2 446 -3 445 -240 1
c-132 1 -251 0 -265 -3z"/>
</g>
</svg>
